# xmcd
#
# Track frame offsets:
# 150
# 15977
# 39683
# 51054
# 70449
# 83400
# 101495
# 116199
# 133832
# 146141
# 161990
# 176784
# 189078
# 201443
# 222221
#
# Disc length: 3069 seconds
#
# Revision: 1
# Processed by: cddbd v1.5.2PL0 Copyright (c) Steve Scherf et al.
# Submitted via: CoinsHifi v1.9e contact@coinshifi.com
#
DISCID=dd0bfb0f
DTITLE=Cousin Joe - Bad luck blues
DYEAR=1971
DGENRE=Blues
TTITLE0=Cousin Joe/Clarence Gatemouth Brown/Jimmy Dawkins/Mac Thomson - I don't want no second hand love
TTITLE1=Cousin Joe - Goin' down slow
TTITLE2=Cousin Joe - Box car shorty
TTITLE3=Cousin Joe - Life is a one way ticket
TTITLE4=Cousin Joe - Chicken and the hawk
TTITLE5=Cousin Joe - Bad luck blues
TTITLE6=Cousin Joe - Take a lesson from your teacher
TTITLE7=Cousin Joe - I'm living on borrowed time
TTITLE8=Cousin Joe - That's enough
TTITLE9=Cousin Joe - Levee blues
TTITLE10=Cousin Joe - I'm tore down
TTITLE11=Cousin Joe - Railroad porter blues
TTITLE12=Cousin Joe - Chicken and the hawk take 1
TTITLE13=Cousin Joe - Goin' down slow take 1
TTITLE14=Cousin Joe - That's enough take 1
EXTD=
EXTT0=
EXTT1=
EXTT2=
EXTT3=
EXTT4=
EXTT5=
EXTT6=
EXTT7=
EXTT8=
EXTT9=
EXTT10=
EXTT11=
EXTT12=
EXTT13=
EXTT14=
PLAYORDER=
